<mxfile host="65bd71144e" pages="5">
    <diagram name="Login Page" id="03018318-947c-dd8e-b7a3-06fadd420f32">
        <mxGraphModel dx="515" dy="175" grid="1" gridSize="10" guides="1" tooltips="1" connect="1" arrows="1" fold="1" page="1" pageScale="1" pageWidth="1100" pageHeight="850" background="none" math="0" shadow="0">
            <root>
                <mxCell id="0"/>
                <mxCell id="1" parent="0"/>
                <mxCell id="677b7b8949515195-1" value="" style="whiteSpace=wrap;html=1;rounded=0;shadow=0;labelBackgroundColor=none;strokeColor=#000000;strokeWidth=1;fillColor=none;fontFamily=Verdana;fontSize=12;fontColor=#000000;align=center;comic=1;" parent="1" vertex="1">
                    <mxGeometry x="20" y="20" width="1060" height="820" as="geometry"/>
                </mxCell>
                <mxCell id="677b7b8949515195-2" value="LOGO" style="whiteSpace=wrap;html=1;rounded=0;shadow=0;labelBackgroundColor=none;strokeWidth=1;fontFamily=Verdana;fontSize=28;align=center;comic=1;" parent="1" vertex="1">
                    <mxGeometry x="40" y="60" width="190" height="50" as="geometry"/>
                </mxCell>
                <mxCell id="677b7b8949515195-8" value="&lt;font style=&quot;font-size: 16px&quot;&gt;Image&lt;/font&gt;" style="whiteSpace=wrap;html=1;rounded=0;shadow=0;labelBackgroundColor=none;strokeWidth=1;fillColor=none;fontFamily=Verdana;fontSize=12;align=center;comic=1;" parent="1" vertex="1">
                    <mxGeometry x="60" y="180" width="240" height="550" as="geometry"/>
                </mxCell>
                <mxCell id="677b7b8949515195-9" value="" style="line;strokeWidth=1;html=1;rounded=0;shadow=0;labelBackgroundColor=none;fillColor=none;fontFamily=Verdana;fontSize=14;fontColor=#000000;align=center;comic=1;" parent="1" vertex="1">
                    <mxGeometry x="20" y="140" width="1060" height="10" as="geometry"/>
                </mxCell>
                <mxCell id="677b7b8949515195-10" value="" style="whiteSpace=wrap;html=1;rounded=0;shadow=0;labelBackgroundColor=none;strokeWidth=1;fillColor=none;fontFamily=Verdana;fontSize=12;align=center;comic=1;" parent="1" vertex="1">
                    <mxGeometry x="720" y="50" width="340" height="60" as="geometry"/>
                </mxCell>
                <mxCell id="677b7b8949515195-11" value="About" style="text;html=1;points=[];align=center;verticalAlign=top;spacingTop=-4;fontSize=18;fontFamily=Verdana" parent="1" vertex="1">
                    <mxGeometry x="790" y="70" width="60" height="30" as="geometry"/>
                </mxCell>
                <mxCell id="677b7b8949515195-25" value="" style="whiteSpace=wrap;html=1;rounded=0;shadow=0;labelBackgroundColor=none;strokeWidth=1;fillColor=none;fontFamily=Verdana;fontSize=12;align=center;comic=1;" parent="1" vertex="1">
                    <mxGeometry x="340" y="180" width="440" height="550" as="geometry"/>
                </mxCell>
                <mxCell id="jlgpzbXPaKx-CtilnDtw-2" value="Title" style="text;html=1;strokeColor=none;fillColor=none;align=center;verticalAlign=middle;whiteSpace=wrap;rounded=0;fontSize=48;" parent="1" vertex="1">
                    <mxGeometry x="490" y="60" width="140" height="50" as="geometry"/>
                </mxCell>
                <mxCell id="jlgpzbXPaKx-CtilnDtw-3" value="Login" style="text;html=1;points=[];align=center;verticalAlign=top;spacingTop=-4;fontSize=18;fontFamily=Verdana" parent="1" vertex="1">
                    <mxGeometry x="940" y="70" width="60" height="30" as="geometry"/>
                </mxCell>
                <mxCell id="jlgpzbXPaKx-CtilnDtw-4" value="" style="endArrow=none;html=1;rounded=0;fontSize=18;" parent="1" target="677b7b8949515195-1" edge="1">
                    <mxGeometry width="50" height="50" relative="1" as="geometry">
                        <mxPoint x="20" y="760" as="sourcePoint"/>
                        <mxPoint x="70" y="730" as="targetPoint"/>
                        <Array as="points">
                            <mxPoint x="560" y="760"/>
                            <mxPoint x="1080" y="760"/>
                        </Array>
                    </mxGeometry>
                </mxCell>
                <mxCell id="jlgpzbXPaKx-CtilnDtw-7" value="&lt;font style=&quot;font-size: 18px&quot;&gt;Copyright&amp;nbsp;&lt;span style=&quot;font-family: &amp;#34;google sans&amp;#34; , &amp;#34;arial&amp;#34; , sans-serif ; text-align: left&quot;&gt;Â© 2021 2b03.2012085.EthanTan@gmail.com&lt;/span&gt;&lt;/font&gt;" style="text;html=1;strokeColor=none;fillColor=none;align=center;verticalAlign=middle;whiteSpace=wrap;rounded=0;fontSize=18;" parent="1" vertex="1">
                    <mxGeometry x="400" y="770" width="300" height="60" as="geometry"/>
                </mxCell>
                <mxCell id="jlgpzbXPaKx-CtilnDtw-9" value="Username" style="text;html=1;strokeColor=none;fillColor=none;align=center;verticalAlign=middle;whiteSpace=wrap;rounded=0;fontSize=18;" parent="1" vertex="1">
                    <mxGeometry x="390" y="230" width="110" height="30" as="geometry"/>
                </mxCell>
                <mxCell id="jlgpzbXPaKx-CtilnDtw-10" value="&lt;font style=&quot;font-size: 16px&quot;&gt;Image&lt;/font&gt;" style="whiteSpace=wrap;html=1;rounded=0;shadow=0;labelBackgroundColor=none;strokeWidth=1;fillColor=none;fontFamily=Verdana;fontSize=12;align=center;comic=1;" parent="1" vertex="1">
                    <mxGeometry x="820" y="180" width="240" height="550" as="geometry"/>
                </mxCell>
                <mxCell id="jlgpzbXPaKx-CtilnDtw-11" value="Login" style="strokeWidth=1;shadow=0;dashed=0;align=center;html=1;shape=mxgraph.mockup.buttons.button;strokeColor=#006EAF;mainText=;buttonStyle=round;fontSize=17;fontStyle=1;fillColor=#1ba1e2;whiteSpace=wrap;fontColor=#ffffff;" parent="1" vertex="1">
                    <mxGeometry x="390" y="330" width="360" height="50" as="geometry"/>
                </mxCell>
                <mxCell id="jlgpzbXPaKx-CtilnDtw-12" value="" style="rounded=1;whiteSpace=wrap;html=1;fontSize=16;align=left;spacingLeft=5;fontColor=#8A8A8A;" parent="1" vertex="1">
                    <mxGeometry x="520" y="230" width="230" height="30" as="geometry"/>
                </mxCell>
                <mxCell id="jlgpzbXPaKx-CtilnDtw-14" value="Password" style="text;html=1;strokeColor=none;fillColor=none;align=center;verticalAlign=middle;whiteSpace=wrap;rounded=0;fontSize=18;" parent="1" vertex="1">
                    <mxGeometry x="390" y="280" width="110" height="30" as="geometry"/>
                </mxCell>
                <mxCell id="jlgpzbXPaKx-CtilnDtw-15" value="" style="rounded=1;whiteSpace=wrap;html=1;fontSize=16;align=left;spacingLeft=5;fontColor=#8A8A8A;" parent="1" vertex="1">
                    <mxGeometry x="520" y="280" width="230" height="30" as="geometry"/>
                </mxCell>
                <mxCell id="jlgpzbXPaKx-CtilnDtw-17" style="edgeStyle=orthogonalEdgeStyle;rounded=0;orthogonalLoop=1;jettySize=auto;html=1;exitX=0.5;exitY=1;exitDx=0;exitDy=0;fontSize=16;fontColor=#8A8A8A;" parent="1" source="jlgpzbXPaKx-CtilnDtw-15" target="jlgpzbXPaKx-CtilnDtw-15" edge="1">
                    <mxGeometry relative="1" as="geometry"/>
                </mxCell>
            </root>
        </mxGraphModel>
    </diagram>
    <diagram id="A6CFWMZUIeFK1SWH4dCE" name="Sign-Up Page">
        <mxGraphModel dx="515" dy="175" grid="1" gridSize="10" guides="1" tooltips="1" connect="1" arrows="1" fold="1" page="1" pageScale="1" pageWidth="1100" pageHeight="850" math="0" shadow="0">
            <root>
                <mxCell id="sD6iAGtp5GhJYIOsrSf3-0"/>
                <mxCell id="sD6iAGtp5GhJYIOsrSf3-1" parent="sD6iAGtp5GhJYIOsrSf3-0"/>
                <mxCell id="ZcNFMlTUNKSXj_gmjvCA-0" value="" style="whiteSpace=wrap;html=1;rounded=0;shadow=0;labelBackgroundColor=none;strokeColor=#000000;strokeWidth=1;fillColor=none;fontFamily=Verdana;fontSize=12;fontColor=#000000;align=center;comic=1;" parent="sD6iAGtp5GhJYIOsrSf3-1" vertex="1">
                    <mxGeometry x="20" y="20" width="1060" height="820" as="geometry"/>
                </mxCell>
                <mxCell id="ZcNFMlTUNKSXj_gmjvCA-1" value="LOGO" style="whiteSpace=wrap;html=1;rounded=0;shadow=0;labelBackgroundColor=none;strokeWidth=1;fontFamily=Verdana;fontSize=28;align=center;comic=1;" parent="sD6iAGtp5GhJYIOsrSf3-1" vertex="1">
                    <mxGeometry x="40" y="60" width="190" height="50" as="geometry"/>
                </mxCell>
                <mxCell id="ZcNFMlTUNKSXj_gmjvCA-3" value="" style="line;strokeWidth=1;html=1;rounded=0;shadow=0;labelBackgroundColor=none;fillColor=none;fontFamily=Verdana;fontSize=14;fontColor=#000000;align=center;comic=1;" parent="sD6iAGtp5GhJYIOsrSf3-1" vertex="1">
                    <mxGeometry x="20" y="140" width="1060" height="10" as="geometry"/>
                </mxCell>
                <mxCell id="ZcNFMlTUNKSXj_gmjvCA-4" value="" style="whiteSpace=wrap;html=1;rounded=0;shadow=0;labelBackgroundColor=none;strokeWidth=1;fillColor=none;fontFamily=Verdana;fontSize=12;align=center;comic=1;" parent="sD6iAGtp5GhJYIOsrSf3-1" vertex="1">
                    <mxGeometry x="720" y="50" width="340" height="60" as="geometry"/>
                </mxCell>
                <mxCell id="ZcNFMlTUNKSXj_gmjvCA-5" value="About" style="text;html=1;points=[];align=center;verticalAlign=top;spacingTop=-4;fontSize=18;fontFamily=Verdana" parent="sD6iAGtp5GhJYIOsrSf3-1" vertex="1">
                    <mxGeometry x="790" y="70" width="60" height="30" as="geometry"/>
                </mxCell>
                <mxCell id="ZcNFMlTUNKSXj_gmjvCA-6" value="" style="whiteSpace=wrap;html=1;rounded=0;shadow=0;labelBackgroundColor=none;strokeWidth=1;fillColor=none;fontFamily=Verdana;fontSize=12;align=center;comic=1;" parent="sD6iAGtp5GhJYIOsrSf3-1" vertex="1">
                    <mxGeometry x="80" y="180" width="980" height="550" as="geometry"/>
                </mxCell>
                <mxCell id="ZcNFMlTUNKSXj_gmjvCA-7" value="Title" style="text;html=1;strokeColor=none;fillColor=none;align=center;verticalAlign=middle;whiteSpace=wrap;rounded=0;fontSize=48;" parent="sD6iAGtp5GhJYIOsrSf3-1" vertex="1">
                    <mxGeometry x="490" y="60" width="140" height="50" as="geometry"/>
                </mxCell>
                <mxCell id="ZcNFMlTUNKSXj_gmjvCA-8" value="Login" style="text;html=1;points=[];align=center;verticalAlign=top;spacingTop=-4;fontSize=18;fontFamily=Verdana" parent="sD6iAGtp5GhJYIOsrSf3-1" vertex="1">
                    <mxGeometry x="940" y="70" width="60" height="30" as="geometry"/>
                </mxCell>
                <mxCell id="ZcNFMlTUNKSXj_gmjvCA-9" value="" style="endArrow=none;html=1;rounded=0;fontSize=18;" parent="sD6iAGtp5GhJYIOsrSf3-1" target="ZcNFMlTUNKSXj_gmjvCA-0" edge="1">
                    <mxGeometry width="50" height="50" relative="1" as="geometry">
                        <mxPoint x="20.000000000000227" y="760" as="sourcePoint"/>
                        <mxPoint x="70" y="730" as="targetPoint"/>
                        <Array as="points">
                            <mxPoint x="560" y="760"/>
                            <mxPoint x="1080" y="760"/>
                        </Array>
                    </mxGeometry>
                </mxCell>
                <mxCell id="ZcNFMlTUNKSXj_gmjvCA-10" value="&lt;font style=&quot;font-size: 18px&quot;&gt;Copyright&amp;nbsp;&lt;span style=&quot;font-family: &amp;#34;google sans&amp;#34; , &amp;#34;arial&amp;#34; , sans-serif ; text-align: left&quot;&gt;Â© 2021 2b03.2012085.EthanTan@gmail.com&lt;/span&gt;&lt;/font&gt;" style="text;html=1;strokeColor=none;fillColor=none;align=center;verticalAlign=middle;whiteSpace=wrap;rounded=0;fontSize=18;" parent="sD6iAGtp5GhJYIOsrSf3-1" vertex="1">
                    <mxGeometry x="400" y="770" width="300" height="60" as="geometry"/>
                </mxCell>
                <mxCell id="ZcNFMlTUNKSXj_gmjvCA-11" value="New Username" style="text;html=1;strokeColor=none;fillColor=none;align=right;verticalAlign=middle;whiteSpace=wrap;rounded=0;fontSize=18;" parent="sD6iAGtp5GhJYIOsrSf3-1" vertex="1">
                    <mxGeometry x="355" y="270" width="140" height="30" as="geometry"/>
                </mxCell>
                <mxCell id="ZcNFMlTUNKSXj_gmjvCA-13" value="Sign Up" style="strokeWidth=1;shadow=0;dashed=0;align=center;html=1;shape=mxgraph.mockup.buttons.button;strokeColor=#005700;mainText=;buttonStyle=round;fontSize=17;fontStyle=1;fillColor=#008a00;whiteSpace=wrap;fontColor=#ffffff;" parent="sD6iAGtp5GhJYIOsrSf3-1" vertex="1">
                    <mxGeometry x="347.5" y="435" width="180" height="40" as="geometry"/>
                </mxCell>
                <mxCell id="ZcNFMlTUNKSXj_gmjvCA-14" value="E.g. John Doe" style="rounded=1;whiteSpace=wrap;html=1;fontSize=16;align=left;spacingLeft=5;fontColor=#8A8A8A;" parent="sD6iAGtp5GhJYIOsrSf3-1" vertex="1">
                    <mxGeometry x="510" y="270" width="230" height="30" as="geometry"/>
                </mxCell>
                <mxCell id="ZcNFMlTUNKSXj_gmjvCA-15" value="New Password" style="text;html=1;strokeColor=none;fillColor=none;align=right;verticalAlign=middle;whiteSpace=wrap;rounded=0;fontSize=18;" parent="sD6iAGtp5GhJYIOsrSf3-1" vertex="1">
                    <mxGeometry x="365" y="320" width="130" height="30" as="geometry"/>
                </mxCell>
                <mxCell id="ZcNFMlTUNKSXj_gmjvCA-16" value="" style="rounded=1;whiteSpace=wrap;html=1;fontSize=16;align=left;spacingLeft=5;fontColor=#8A8A8A;" parent="sD6iAGtp5GhJYIOsrSf3-1" vertex="1">
                    <mxGeometry x="510" y="320" width="230" height="30" as="geometry"/>
                </mxCell>
                <mxCell id="ZcNFMlTUNKSXj_gmjvCA-17" style="edgeStyle=orthogonalEdgeStyle;rounded=0;orthogonalLoop=1;jettySize=auto;html=1;exitX=0.5;exitY=1;exitDx=0;exitDy=0;fontSize=16;fontColor=#8A8A8A;" parent="sD6iAGtp5GhJYIOsrSf3-1" source="ZcNFMlTUNKSXj_gmjvCA-16" target="ZcNFMlTUNKSXj_gmjvCA-16" edge="1">
                    <mxGeometry relative="1" as="geometry"/>
                </mxCell>
                <mxCell id="dIspgqHlJQNAVi5b7Blh-0" value="Confirm Password&lt;span style=&quot;color: rgba(0 , 0 , 0 , 0) ; font-family: monospace ; font-size: 0px&quot;&gt;%3CmxGraphModel%3E%3Croot%3E%3CmxCell%20id%3D%220%22%2F%3E%3CmxCell%20id%3D%221%22%20parent%3D%220%22%2F%3E%3CmxCell%20id%3D%222%22%20value%3D%22Password%22%20style%3D%22text%3Bhtml%3D1%3BstrokeColor%3Dnone%3BfillColor%3Dnone%3Balign%3Dcenter%3BverticalAlign%3Dmiddle%3BwhiteSpace%3Dwrap%3Brounded%3D0%3BfontSize%3D18%3B%22%20vertex%3D%221%22%20parent%3D%221%22%3E%3CmxGeometry%20x%3D%22390%22%20y%3D%22280%22%20width%3D%22110%22%20height%3D%2230%22%20as%3D%22geometry%22%2F%3E%3C%2FmxCell%3E%3CmxCell%20id%3D%223%22%20value%3D%22E.g.%20John%20Doe%22%20style%3D%22rounded%3D1%3BwhiteSpace%3Dwrap%3Bhtml%3D1%3BfontSize%3D16%3Balign%3Dleft%3BspacingLeft%3D5%3BfontColor%3D%238A8A8A%3B%22%20vertex%3D%221%22%20parent%3D%221%22%3E%3CmxGeometry%20x%3D%22520%22%20y%3D%22280%22%20width%3D%22230%22%20height%3D%2230%22%20as%3D%22geometry%22%2F%3E%3C%2FmxCell%3E%3C%2Froot%3E%3C%2FmxGraphModel%3E&lt;/span&gt;" style="text;html=1;strokeColor=none;fillColor=none;align=right;verticalAlign=middle;whiteSpace=wrap;rounded=0;fontSize=18;" parent="sD6iAGtp5GhJYIOsrSf3-1" vertex="1">
                    <mxGeometry x="335" y="370" width="160" height="30" as="geometry"/>
                </mxCell>
                <mxCell id="dIspgqHlJQNAVi5b7Blh-1" value="" style="rounded=1;whiteSpace=wrap;html=1;fontSize=16;align=left;spacingLeft=5;fontColor=#8A8A8A;" parent="sD6iAGtp5GhJYIOsrSf3-1" vertex="1">
                    <mxGeometry x="510" y="370" width="230" height="30" as="geometry"/>
                </mxCell>
                <mxCell id="dIspgqHlJQNAVi5b7Blh-2" value="Your Email" style="text;html=1;strokeColor=none;fillColor=none;align=right;verticalAlign=middle;whiteSpace=wrap;rounded=0;fontSize=18;" parent="sD6iAGtp5GhJYIOsrSf3-1" vertex="1">
                    <mxGeometry x="380" y="220" width="115" height="30" as="geometry"/>
                </mxCell>
                <mxCell id="dIspgqHlJQNAVi5b7Blh-3" value="E.g. john_doe@abc.net" style="rounded=1;whiteSpace=wrap;html=1;fontSize=16;align=left;spacingLeft=5;fontColor=#8A8A8A;" parent="sD6iAGtp5GhJYIOsrSf3-1" vertex="1">
                    <mxGeometry x="510" y="220" width="230" height="30" as="geometry"/>
                </mxCell>
                <mxCell id="-LFCpjzyBjivWzk2k1qf-0" value="Cancel" style="strokeWidth=1;shadow=0;dashed=0;align=center;html=1;shape=mxgraph.mockup.buttons.button;strokeColor=#B09500;mainText=;buttonStyle=round;fontSize=17;fontStyle=1;fillColor=#e3c800;whiteSpace=wrap;fontColor=#6E6E6E;" parent="sD6iAGtp5GhJYIOsrSf3-1" vertex="1">
                    <mxGeometry x="560" y="435" width="180" height="40" as="geometry"/>
                </mxCell>
            </root>
        </mxGraphModel>
    </diagram>
    <diagram id="A6BoU_-hGoGgJx2I8naz" name="About Page">
        <mxGraphModel dx="515" dy="175" grid="1" gridSize="10" guides="1" tooltips="1" connect="1" arrows="1" fold="1" page="1" pageScale="1" pageWidth="1100" pageHeight="850" math="0" shadow="0">
            <root>
                <mxCell id="TFQY5czn47okGpMW3xpG-0"/>
                <mxCell id="TFQY5czn47okGpMW3xpG-1" parent="TFQY5czn47okGpMW3xpG-0"/>
                <mxCell id="HIyUThHaCWzAPEJsMTxO-0" value="" style="whiteSpace=wrap;html=1;rounded=0;shadow=0;labelBackgroundColor=none;strokeColor=#000000;strokeWidth=1;fillColor=none;fontFamily=Verdana;fontSize=12;fontColor=#000000;align=center;comic=1;" parent="TFQY5czn47okGpMW3xpG-1" vertex="1">
                    <mxGeometry x="20" y="20" width="1060" height="820" as="geometry"/>
                </mxCell>
                <mxCell id="HIyUThHaCWzAPEJsMTxO-1" value="LOGO" style="whiteSpace=wrap;html=1;rounded=0;shadow=0;labelBackgroundColor=none;strokeWidth=1;fontFamily=Verdana;fontSize=28;align=center;comic=1;" parent="TFQY5czn47okGpMW3xpG-1" vertex="1">
                    <mxGeometry x="40" y="60" width="190" height="50" as="geometry"/>
                </mxCell>
                <mxCell id="HIyUThHaCWzAPEJsMTxO-2" value="&lt;font style=&quot;font-size: 16px&quot;&gt;Image&lt;/font&gt;" style="whiteSpace=wrap;html=1;rounded=0;shadow=0;labelBackgroundColor=none;strokeWidth=1;fillColor=none;fontFamily=Verdana;fontSize=12;align=center;comic=1;" parent="TFQY5czn47okGpMW3xpG-1" vertex="1">
                    <mxGeometry x="60" y="180" width="240" height="550" as="geometry"/>
                </mxCell>
                <mxCell id="HIyUThHaCWzAPEJsMTxO-3" value="" style="line;strokeWidth=1;html=1;rounded=0;shadow=0;labelBackgroundColor=none;fillColor=none;fontFamily=Verdana;fontSize=14;fontColor=#000000;align=center;comic=1;" parent="TFQY5czn47okGpMW3xpG-1" vertex="1">
                    <mxGeometry x="20" y="140" width="1060" height="10" as="geometry"/>
                </mxCell>
                <mxCell id="HIyUThHaCWzAPEJsMTxO-4" value="" style="whiteSpace=wrap;html=1;rounded=0;shadow=0;labelBackgroundColor=none;strokeWidth=1;fillColor=none;fontFamily=Verdana;fontSize=12;align=center;comic=1;" parent="TFQY5czn47okGpMW3xpG-1" vertex="1">
                    <mxGeometry x="720" y="50" width="340" height="60" as="geometry"/>
                </mxCell>
                <mxCell id="HIyUThHaCWzAPEJsMTxO-5" value="About" style="text;html=1;points=[];align=center;verticalAlign=top;spacingTop=-4;fontSize=18;fontFamily=Verdana" parent="TFQY5czn47okGpMW3xpG-1" vertex="1">
                    <mxGeometry x="790" y="70" width="60" height="30" as="geometry"/>
                </mxCell>
                <mxCell id="HIyUThHaCWzAPEJsMTxO-6" value="&lt;span style=&quot;font-family: &amp;#34;open sans&amp;#34; , &amp;#34;arial&amp;#34; , sans-serif ; text-align: justify&quot;&gt;&lt;font style=&quot;font-size: 23px&quot;&gt;Lorem ipsum dolor sit amet, consectetur adipiscing elit, sed do eiusmod tempor incididunt ut labore et dolore magna aliqua. Ut enim ad minim veniam, quis nostrud exercitation ullamco laboris nisi ut aliquip ex ea commodo consequat. Duis aute irure dolor in reprehenderit in voluptate velit esse cillum dolore eu fugiat nulla pariatur. Excepteur sint occaecat cupidatat non proident, sunt in culpa qui officia deserunt mollit anim id est laborum&lt;/font&gt;&lt;/span&gt;" style="whiteSpace=wrap;html=1;rounded=0;shadow=0;labelBackgroundColor=none;strokeWidth=1;fillColor=none;fontFamily=Verdana;fontSize=12;align=center;comic=1;spacingLeft=16;spacingRight=16;" parent="TFQY5czn47okGpMW3xpG-1" vertex="1">
                    <mxGeometry x="340" y="180" width="440" height="550" as="geometry"/>
                </mxCell>
                <mxCell id="HIyUThHaCWzAPEJsMTxO-7" value="Title" style="text;html=1;strokeColor=none;fillColor=none;align=center;verticalAlign=middle;whiteSpace=wrap;rounded=0;fontSize=48;" parent="TFQY5czn47okGpMW3xpG-1" vertex="1">
                    <mxGeometry x="490" y="60" width="140" height="50" as="geometry"/>
                </mxCell>
                <mxCell id="HIyUThHaCWzAPEJsMTxO-8" value="Login" style="text;html=1;points=[];align=center;verticalAlign=top;spacingTop=-4;fontSize=18;fontFamily=Verdana" parent="TFQY5czn47okGpMW3xpG-1" vertex="1">
                    <mxGeometry x="940" y="70" width="60" height="30" as="geometry"/>
                </mxCell>
                <mxCell id="HIyUThHaCWzAPEJsMTxO-9" value="" style="endArrow=none;html=1;rounded=0;fontSize=18;" parent="TFQY5czn47okGpMW3xpG-1" target="HIyUThHaCWzAPEJsMTxO-0" edge="1">
                    <mxGeometry width="50" height="50" relative="1" as="geometry">
                        <mxPoint x="20.000000000000227" y="760" as="sourcePoint"/>
                        <mxPoint x="70" y="730" as="targetPoint"/>
                        <Array as="points">
                            <mxPoint x="560" y="760"/>
                            <mxPoint x="1080" y="760"/>
                        </Array>
                    </mxGeometry>
                </mxCell>
                <mxCell id="HIyUThHaCWzAPEJsMTxO-10" value="&lt;font style=&quot;font-size: 18px&quot;&gt;Copyright&amp;nbsp;&lt;span style=&quot;font-family: &amp;#34;google sans&amp;#34; , &amp;#34;arial&amp;#34; , sans-serif ; text-align: left&quot;&gt;Â© 2021 2b03.2012085.EthanTan@gmail.com&lt;/span&gt;&lt;/font&gt;" style="text;html=1;strokeColor=none;fillColor=none;align=center;verticalAlign=middle;whiteSpace=wrap;rounded=0;fontSize=18;" parent="TFQY5czn47okGpMW3xpG-1" vertex="1">
                    <mxGeometry x="400" y="770" width="300" height="60" as="geometry"/>
                </mxCell>
                <mxCell id="HIyUThHaCWzAPEJsMTxO-12" value="&lt;font style=&quot;font-size: 16px&quot;&gt;Image&lt;/font&gt;" style="whiteSpace=wrap;html=1;rounded=0;shadow=0;labelBackgroundColor=none;strokeWidth=1;fillColor=none;fontFamily=Verdana;fontSize=12;align=center;comic=1;" parent="TFQY5czn47okGpMW3xpG-1" vertex="1">
                    <mxGeometry x="820" y="180" width="240" height="550" as="geometry"/>
                </mxCell>
                <mxCell id="HIyUThHaCWzAPEJsMTxO-17" style="edgeStyle=orthogonalEdgeStyle;rounded=0;orthogonalLoop=1;jettySize=auto;html=1;exitX=0.5;exitY=1;exitDx=0;exitDy=0;fontSize=16;fontColor=#8A8A8A;" parent="TFQY5czn47okGpMW3xpG-1" edge="1">
                    <mxGeometry relative="1" as="geometry">
                        <mxPoint x="635" y="310" as="sourcePoint"/>
                        <mxPoint x="635" y="310" as="targetPoint"/>
                    </mxGeometry>
                </mxCell>
            </root>
        </mxGraphModel>
    </diagram>
    <diagram id="DTAgY2-nhpfcqhcjn9IV" name="Home (new prediction) Page">
        <mxGraphModel dx="515" dy="175" grid="1" gridSize="10" guides="1" tooltips="1" connect="1" arrows="1" fold="1" page="1" pageScale="1" pageWidth="1100" pageHeight="850" math="0" shadow="0">
            <root>
                <mxCell id="NyZaAUXZyafqqTmAw_CK-0"/>
                <mxCell id="NyZaAUXZyafqqTmAw_CK-1" parent="NyZaAUXZyafqqTmAw_CK-0"/>
                <mxCell id="ybgwnyrLD5EkXlq765gd-0" value="" style="whiteSpace=wrap;html=1;rounded=0;shadow=0;labelBackgroundColor=none;strokeColor=#000000;strokeWidth=1;fillColor=none;fontFamily=Verdana;fontSize=12;fontColor=#000000;align=center;comic=1;" parent="NyZaAUXZyafqqTmAw_CK-1" vertex="1">
                    <mxGeometry x="20" y="20" width="1060" height="820" as="geometry"/>
                </mxCell>
                <mxCell id="ybgwnyrLD5EkXlq765gd-1" value="LOGO" style="whiteSpace=wrap;html=1;rounded=0;shadow=0;labelBackgroundColor=none;strokeWidth=1;fontFamily=Verdana;fontSize=28;align=center;comic=1;" parent="NyZaAUXZyafqqTmAw_CK-1" vertex="1">
                    <mxGeometry x="40" y="60" width="190" height="50" as="geometry"/>
                </mxCell>
                <mxCell id="ybgwnyrLD5EkXlq765gd-2" value="" style="whiteSpace=wrap;html=1;rounded=0;shadow=0;labelBackgroundColor=none;strokeWidth=1;fillColor=none;fontFamily=Verdana;fontSize=12;align=center;comic=1;" parent="NyZaAUXZyafqqTmAw_CK-1" vertex="1">
                    <mxGeometry x="60" y="180" width="240" height="550" as="geometry"/>
                </mxCell>
                <mxCell id="ybgwnyrLD5EkXlq765gd-3" value="" style="line;strokeWidth=1;html=1;rounded=0;shadow=0;labelBackgroundColor=none;fillColor=none;fontFamily=Verdana;fontSize=14;fontColor=#000000;align=center;comic=1;" parent="NyZaAUXZyafqqTmAw_CK-1" vertex="1">
                    <mxGeometry x="20" y="140" width="1060" height="10" as="geometry"/>
                </mxCell>
                <mxCell id="ybgwnyrLD5EkXlq765gd-4" value="" style="whiteSpace=wrap;html=1;rounded=0;shadow=0;labelBackgroundColor=none;strokeWidth=1;fillColor=none;fontFamily=Verdana;fontSize=12;align=center;comic=1;" parent="NyZaAUXZyafqqTmAw_CK-1" vertex="1">
                    <mxGeometry x="530" y="50" width="530" height="60" as="geometry"/>
                </mxCell>
                <mxCell id="ybgwnyrLD5EkXlq765gd-5" value="About" style="text;html=1;points=[];align=center;verticalAlign=top;spacingTop=-4;fontSize=18;fontFamily=Verdana" parent="NyZaAUXZyafqqTmAw_CK-1" vertex="1">
                    <mxGeometry x="620" y="65" width="60" height="30" as="geometry"/>
                </mxCell>
                <mxCell id="ybgwnyrLD5EkXlq765gd-6" value="" style="whiteSpace=wrap;html=1;rounded=0;shadow=0;labelBackgroundColor=none;strokeWidth=1;fillColor=none;fontFamily=Verdana;fontSize=12;align=center;comic=1;" parent="NyZaAUXZyafqqTmAw_CK-1" vertex="1">
                    <mxGeometry x="340" y="180" width="440" height="550" as="geometry"/>
                </mxCell>
                <mxCell id="ybgwnyrLD5EkXlq765gd-7" value="Title" style="text;html=1;strokeColor=none;fillColor=none;align=center;verticalAlign=middle;whiteSpace=wrap;rounded=0;fontSize=48;" parent="NyZaAUXZyafqqTmAw_CK-1" vertex="1">
                    <mxGeometry x="270" y="60" width="140" height="50" as="geometry"/>
                </mxCell>
                <mxCell id="ybgwnyrLD5EkXlq765gd-8" value="Logout" style="text;html=1;points=[];align=center;verticalAlign=top;spacingTop=-4;fontSize=18;fontFamily=Verdana" parent="NyZaAUXZyafqqTmAw_CK-1" vertex="1">
                    <mxGeometry x="920" y="65" width="80" height="30" as="geometry"/>
                </mxCell>
                <mxCell id="ybgwnyrLD5EkXlq765gd-9" value="" style="endArrow=none;html=1;rounded=0;fontSize=18;" parent="NyZaAUXZyafqqTmAw_CK-1" target="ybgwnyrLD5EkXlq765gd-0" edge="1">
                    <mxGeometry width="50" height="50" relative="1" as="geometry">
                        <mxPoint x="20.000000000000227" y="760" as="sourcePoint"/>
                        <mxPoint x="70" y="730" as="targetPoint"/>
                        <Array as="points">
                            <mxPoint x="560" y="760"/>
                            <mxPoint x="1080" y="760"/>
                        </Array>
                    </mxGeometry>
                </mxCell>
                <mxCell id="ybgwnyrLD5EkXlq765gd-10" value="&lt;font style=&quot;font-size: 18px&quot;&gt;Copyright&amp;nbsp;&lt;span style=&quot;font-family: &amp;#34;google sans&amp;#34; , &amp;#34;arial&amp;#34; , sans-serif ; text-align: left&quot;&gt;Â© 2021 2b03.2012085.EthanTan@gmail.com&lt;/span&gt;&lt;/font&gt;" style="text;html=1;strokeColor=none;fillColor=none;align=center;verticalAlign=middle;whiteSpace=wrap;rounded=0;fontSize=18;" parent="NyZaAUXZyafqqTmAw_CK-1" vertex="1">
                    <mxGeometry x="400" y="770" width="300" height="60" as="geometry"/>
                </mxCell>
                <mxCell id="ybgwnyrLD5EkXlq765gd-12" value="" style="whiteSpace=wrap;html=1;rounded=0;shadow=0;labelBackgroundColor=none;strokeWidth=1;fillColor=none;fontFamily=Verdana;fontSize=12;align=center;comic=1;" parent="NyZaAUXZyafqqTmAw_CK-1" vertex="1">
                    <mxGeometry x="820" y="180" width="240" height="550" as="geometry"/>
                </mxCell>
                <mxCell id="ybgwnyrLD5EkXlq765gd-17" style="edgeStyle=orthogonalEdgeStyle;rounded=0;orthogonalLoop=1;jettySize=auto;html=1;exitX=0.5;exitY=1;exitDx=0;exitDy=0;fontSize=16;fontColor=#8A8A8A;" parent="NyZaAUXZyafqqTmAw_CK-1" edge="1">
                    <mxGeometry relative="1" as="geometry">
                        <mxPoint x="635" y="310" as="sourcePoint"/>
                        <mxPoint x="635" y="310" as="targetPoint"/>
                    </mxGeometry>
                </mxCell>
                <mxCell id="SynqtUkd94yRHO2bQfPr-0" value="Home" style="text;html=1;points=[];align=center;verticalAlign=top;spacingTop=-4;fontSize=18;fontFamily=Verdana" parent="NyZaAUXZyafqqTmAw_CK-1" vertex="1">
                    <mxGeometry x="770" y="65" width="60" height="30" as="geometry"/>
                </mxCell>
                <mxCell id="Z9OywAzO44Z5M25j2VM8-0" value="&lt;font style=&quot;font-size: 20px&quot; color=&quot;#000000&quot;&gt;Prediction History&lt;/font&gt;" style="text;html=1;strokeColor=none;fillColor=none;align=center;verticalAlign=middle;whiteSpace=wrap;rounded=0;fontColor=#6E6E6E;fontSize=20;" parent="NyZaAUXZyafqqTmAw_CK-1" vertex="1">
                    <mxGeometry x="92.5" y="290" width="175" height="30" as="geometry"/>
                </mxCell>
                <mxCell id="Z9OywAzO44Z5M25j2VM8-1" value="&lt;font color=&quot;#000000&quot;&gt;&amp;gt;&amp;gt; New Prediction&lt;/font&gt;" style="text;html=1;strokeColor=none;fillColor=none;align=center;verticalAlign=middle;whiteSpace=wrap;rounded=0;fontColor=#6E6E6E;fontSize=20;" parent="NyZaAUXZyafqqTmAw_CK-1" vertex="1">
                    <mxGeometry x="92.5" y="240" width="187.5" height="30" as="geometry"/>
                </mxCell>
                <mxCell id="sWxngQ9KtzCWDiV2mO2h-0" value="Field 1" style="text;html=1;strokeColor=none;fillColor=none;align=center;verticalAlign=middle;whiteSpace=wrap;rounded=0;fontSize=18;" parent="NyZaAUXZyafqqTmAw_CK-1" vertex="1">
                    <mxGeometry x="380" y="230" width="110" height="30" as="geometry"/>
                </mxCell>
                <mxCell id="sWxngQ9KtzCWDiV2mO2h-1" value="" style="rounded=1;whiteSpace=wrap;html=1;fontSize=16;align=left;spacingLeft=5;fontColor=#8A8A8A;" parent="NyZaAUXZyafqqTmAw_CK-1" vertex="1">
                    <mxGeometry x="510" y="230" width="230" height="30" as="geometry"/>
                </mxCell>
                <mxCell id="sWxngQ9KtzCWDiV2mO2h-2" value="Field 2" style="text;html=1;strokeColor=none;fillColor=none;align=center;verticalAlign=middle;whiteSpace=wrap;rounded=0;fontSize=18;" parent="NyZaAUXZyafqqTmAw_CK-1" vertex="1">
                    <mxGeometry x="380" y="280" width="110" height="30" as="geometry"/>
                </mxCell>
                <mxCell id="sWxngQ9KtzCWDiV2mO2h-3" value="" style="rounded=1;whiteSpace=wrap;html=1;fontSize=16;align=left;spacingLeft=5;fontColor=#8A8A8A;" parent="NyZaAUXZyafqqTmAw_CK-1" vertex="1">
                    <mxGeometry x="510" y="280" width="230" height="30" as="geometry"/>
                </mxCell>
                <mxCell id="sWxngQ9KtzCWDiV2mO2h-5" value="&lt;font color=&quot;#000000&quot;&gt;Submit for Prediction&lt;/font&gt;" style="labelPosition=center;verticalLabelPosition=middle;align=center;html=1;shape=mxgraph.basic.button;dx=10;fontSize=20;fontColor=#6E6E6E;" parent="NyZaAUXZyafqqTmAw_CK-1" vertex="1">
                    <mxGeometry x="400" y="340" width="340" height="50" as="geometry"/>
                </mxCell>
            </root>
        </mxGraphModel>
    </diagram>
    <diagram name="Home (history) Page" id="93fAxreSzp83tNRLxzDf">
        <mxGraphModel dx="515" dy="175" grid="1" gridSize="10" guides="1" tooltips="1" connect="1" arrows="1" fold="1" page="1" pageScale="1" pageWidth="1100" pageHeight="850" math="0" shadow="0">
            <root>
                <mxCell id="8Pm8QScqm_683TccqrMQ-0"/>
                <mxCell id="8Pm8QScqm_683TccqrMQ-1" parent="8Pm8QScqm_683TccqrMQ-0"/>
                <mxCell id="8Pm8QScqm_683TccqrMQ-2" value="" style="whiteSpace=wrap;html=1;rounded=0;shadow=0;labelBackgroundColor=none;strokeColor=#000000;strokeWidth=1;fillColor=none;fontFamily=Verdana;fontSize=12;fontColor=#000000;align=center;comic=1;" parent="8Pm8QScqm_683TccqrMQ-1" vertex="1">
                    <mxGeometry x="20" y="20" width="1060" height="820" as="geometry"/>
                </mxCell>
                <mxCell id="8Pm8QScqm_683TccqrMQ-3" value="LOGO" style="whiteSpace=wrap;html=1;rounded=0;shadow=0;labelBackgroundColor=none;strokeWidth=1;fontFamily=Verdana;fontSize=28;align=center;comic=1;" parent="8Pm8QScqm_683TccqrMQ-1" vertex="1">
                    <mxGeometry x="40" y="60" width="190" height="50" as="geometry"/>
                </mxCell>
                <mxCell id="8Pm8QScqm_683TccqrMQ-4" value="" style="whiteSpace=wrap;html=1;rounded=0;shadow=0;labelBackgroundColor=none;strokeWidth=1;fillColor=none;fontFamily=Verdana;fontSize=12;align=center;comic=1;" parent="8Pm8QScqm_683TccqrMQ-1" vertex="1">
                    <mxGeometry x="60" y="180" width="240" height="550" as="geometry"/>
                </mxCell>
                <mxCell id="8Pm8QScqm_683TccqrMQ-5" value="" style="line;strokeWidth=1;html=1;rounded=0;shadow=0;labelBackgroundColor=none;fillColor=none;fontFamily=Verdana;fontSize=14;fontColor=#000000;align=center;comic=1;" parent="8Pm8QScqm_683TccqrMQ-1" vertex="1">
                    <mxGeometry x="20" y="140" width="1060" height="10" as="geometry"/>
                </mxCell>
                <mxCell id="8Pm8QScqm_683TccqrMQ-6" value="" style="whiteSpace=wrap;html=1;rounded=0;shadow=0;labelBackgroundColor=none;strokeWidth=1;fillColor=none;fontFamily=Verdana;fontSize=12;align=center;comic=1;" parent="8Pm8QScqm_683TccqrMQ-1" vertex="1">
                    <mxGeometry x="530" y="50" width="530" height="60" as="geometry"/>
                </mxCell>
                <mxCell id="8Pm8QScqm_683TccqrMQ-7" value="About" style="text;html=1;points=[];align=center;verticalAlign=top;spacingTop=-4;fontSize=18;fontFamily=Verdana" parent="8Pm8QScqm_683TccqrMQ-1" vertex="1">
                    <mxGeometry x="620" y="65" width="60" height="30" as="geometry"/>
                </mxCell>
                <mxCell id="8Pm8QScqm_683TccqrMQ-8" value="" style="whiteSpace=wrap;html=1;rounded=0;shadow=0;labelBackgroundColor=none;strokeWidth=1;fillColor=none;fontFamily=Verdana;fontSize=12;align=center;comic=1;" parent="8Pm8QScqm_683TccqrMQ-1" vertex="1">
                    <mxGeometry x="340" y="180" width="440" height="550" as="geometry"/>
                </mxCell>
                <mxCell id="8Pm8QScqm_683TccqrMQ-9" value="Title" style="text;html=1;strokeColor=none;fillColor=none;align=center;verticalAlign=middle;whiteSpace=wrap;rounded=0;fontSize=48;" parent="8Pm8QScqm_683TccqrMQ-1" vertex="1">
                    <mxGeometry x="270" y="60" width="140" height="50" as="geometry"/>
                </mxCell>
                <mxCell id="8Pm8QScqm_683TccqrMQ-10" value="Logout" style="text;html=1;points=[];align=center;verticalAlign=top;spacingTop=-4;fontSize=18;fontFamily=Verdana" parent="8Pm8QScqm_683TccqrMQ-1" vertex="1">
                    <mxGeometry x="920" y="65" width="80" height="30" as="geometry"/>
                </mxCell>
                <mxCell id="8Pm8QScqm_683TccqrMQ-11" value="" style="endArrow=none;html=1;rounded=0;fontSize=18;" parent="8Pm8QScqm_683TccqrMQ-1" target="8Pm8QScqm_683TccqrMQ-2" edge="1">
                    <mxGeometry width="50" height="50" relative="1" as="geometry">
                        <mxPoint x="20.000000000000227" y="760" as="sourcePoint"/>
                        <mxPoint x="70" y="730" as="targetPoint"/>
                        <Array as="points">
                            <mxPoint x="560" y="760"/>
                            <mxPoint x="1080" y="760"/>
                        </Array>
                    </mxGeometry>
                </mxCell>
                <mxCell id="8Pm8QScqm_683TccqrMQ-12" value="&lt;font style=&quot;font-size: 18px&quot;&gt;Copyright&amp;nbsp;&lt;span style=&quot;font-family: &amp;#34;google sans&amp;#34; , &amp;#34;arial&amp;#34; , sans-serif ; text-align: left&quot;&gt;Â© 2021 2b03.2012085.EthanTan@gmail.com&lt;/span&gt;&lt;/font&gt;" style="text;html=1;strokeColor=none;fillColor=none;align=center;verticalAlign=middle;whiteSpace=wrap;rounded=0;fontSize=18;" parent="8Pm8QScqm_683TccqrMQ-1" vertex="1">
                    <mxGeometry x="400" y="770" width="300" height="60" as="geometry"/>
                </mxCell>
                <mxCell id="8Pm8QScqm_683TccqrMQ-13" value="" style="whiteSpace=wrap;html=1;rounded=0;shadow=0;labelBackgroundColor=none;strokeWidth=1;fillColor=none;fontFamily=Verdana;fontSize=12;align=center;comic=1;" parent="8Pm8QScqm_683TccqrMQ-1" vertex="1">
                    <mxGeometry x="820" y="180" width="240" height="550" as="geometry"/>
                </mxCell>
                <mxCell id="8Pm8QScqm_683TccqrMQ-14" style="edgeStyle=orthogonalEdgeStyle;rounded=0;orthogonalLoop=1;jettySize=auto;html=1;exitX=0.5;exitY=1;exitDx=0;exitDy=0;fontSize=16;fontColor=#8A8A8A;" parent="8Pm8QScqm_683TccqrMQ-1" edge="1">
                    <mxGeometry relative="1" as="geometry">
                        <mxPoint x="635" y="310" as="sourcePoint"/>
                        <mxPoint x="635" y="310" as="targetPoint"/>
                    </mxGeometry>
                </mxCell>
                <mxCell id="8Pm8QScqm_683TccqrMQ-15" value="Home" style="text;html=1;points=[];align=center;verticalAlign=top;spacingTop=-4;fontSize=18;fontFamily=Verdana" parent="8Pm8QScqm_683TccqrMQ-1" vertex="1">
                    <mxGeometry x="770" y="65" width="60" height="30" as="geometry"/>
                </mxCell>
                <mxCell id="8Pm8QScqm_683TccqrMQ-16" value="&lt;font style=&quot;font-size: 20px&quot; color=&quot;#000000&quot;&gt;&amp;gt;&amp;gt; Prediction History&lt;/font&gt;" style="text;html=1;strokeColor=none;fillColor=none;align=center;verticalAlign=middle;whiteSpace=wrap;rounded=0;fontColor=#6E6E6E;fontSize=20;" parent="8Pm8QScqm_683TccqrMQ-1" vertex="1">
                    <mxGeometry x="92.5" y="290" width="187.5" height="30" as="geometry"/>
                </mxCell>
                <mxCell id="8Pm8QScqm_683TccqrMQ-17" value="&lt;font color=&quot;#000000&quot;&gt;New Prediction&lt;/font&gt;" style="text;html=1;strokeColor=none;fillColor=none;align=center;verticalAlign=middle;whiteSpace=wrap;rounded=0;fontColor=#6E6E6E;fontSize=20;" parent="8Pm8QScqm_683TccqrMQ-1" vertex="1">
                    <mxGeometry x="90" y="240" width="140" height="30" as="geometry"/>
                </mxCell>
                <mxCell id="fsfctVLM751hEk04BxLL-0" value="Table" style="shape=table;startSize=30;container=1;collapsible=0;childLayout=tableLayout;fontStyle=1;align=center;pointerEvents=1;" parent="8Pm8QScqm_683TccqrMQ-1" vertex="1">
                    <mxGeometry x="380" y="240" width="340" height="150" as="geometry"/>
                </mxCell>
                <mxCell id="fsfctVLM751hEk04BxLL-1" value="" style="shape=partialRectangle;html=1;whiteSpace=wrap;collapsible=0;dropTarget=0;pointerEvents=0;fillColor=none;top=0;left=0;bottom=0;right=0;points=[[0,0.5],[1,0.5]];portConstraint=eastwest;" parent="fsfctVLM751hEk04BxLL-0" vertex="1">
                    <mxGeometry y="30" width="340" height="40" as="geometry"/>
                </mxCell>
                <mxCell id="fsfctVLM751hEk04BxLL-2" value="" style="shape=partialRectangle;html=1;whiteSpace=wrap;connectable=0;fillColor=none;top=0;left=0;bottom=0;right=0;overflow=hidden;pointerEvents=1;" parent="fsfctVLM751hEk04BxLL-1" vertex="1">
                    <mxGeometry width="113" height="40" as="geometry">
                        <mxRectangle width="113" height="40" as="alternateBounds"/>
                    </mxGeometry>
                </mxCell>
                <mxCell id="fsfctVLM751hEk04BxLL-3" value="" style="shape=partialRectangle;html=1;whiteSpace=wrap;connectable=0;fillColor=none;top=0;left=0;bottom=0;right=0;overflow=hidden;pointerEvents=1;" parent="fsfctVLM751hEk04BxLL-1" vertex="1">
                    <mxGeometry x="113" width="114" height="40" as="geometry">
                        <mxRectangle width="114" height="40" as="alternateBounds"/>
                    </mxGeometry>
                </mxCell>
                <mxCell id="fsfctVLM751hEk04BxLL-4" value="" style="shape=partialRectangle;html=1;whiteSpace=wrap;connectable=0;fillColor=none;top=0;left=0;bottom=0;right=0;overflow=hidden;pointerEvents=1;" parent="fsfctVLM751hEk04BxLL-1" vertex="1">
                    <mxGeometry x="227" width="113" height="40" as="geometry">
                        <mxRectangle width="113" height="40" as="alternateBounds"/>
                    </mxGeometry>
                </mxCell>
                <mxCell id="fsfctVLM751hEk04BxLL-5" value="" style="shape=partialRectangle;html=1;whiteSpace=wrap;collapsible=0;dropTarget=0;pointerEvents=0;fillColor=none;top=0;left=0;bottom=0;right=0;points=[[0,0.5],[1,0.5]];portConstraint=eastwest;" parent="fsfctVLM751hEk04BxLL-0" vertex="1">
                    <mxGeometry y="70" width="340" height="40" as="geometry"/>
                </mxCell>
                <mxCell id="fsfctVLM751hEk04BxLL-6" value="" style="shape=partialRectangle;html=1;whiteSpace=wrap;connectable=0;fillColor=none;top=0;left=0;bottom=0;right=0;overflow=hidden;pointerEvents=1;" parent="fsfctVLM751hEk04BxLL-5" vertex="1">
                    <mxGeometry width="113" height="40" as="geometry">
                        <mxRectangle width="113" height="40" as="alternateBounds"/>
                    </mxGeometry>
                </mxCell>
                <mxCell id="fsfctVLM751hEk04BxLL-7" value="" style="shape=partialRectangle;html=1;whiteSpace=wrap;connectable=0;fillColor=none;top=0;left=0;bottom=0;right=0;overflow=hidden;pointerEvents=1;" parent="fsfctVLM751hEk04BxLL-5" vertex="1">
                    <mxGeometry x="113" width="114" height="40" as="geometry">
                        <mxRectangle width="114" height="40" as="alternateBounds"/>
                    </mxGeometry>
                </mxCell>
                <mxCell id="fsfctVLM751hEk04BxLL-8" value="" style="shape=partialRectangle;html=1;whiteSpace=wrap;connectable=0;fillColor=none;top=0;left=0;bottom=0;right=0;overflow=hidden;pointerEvents=1;" parent="fsfctVLM751hEk04BxLL-5" vertex="1">
                    <mxGeometry x="227" width="113" height="40" as="geometry">
                        <mxRectangle width="113" height="40" as="alternateBounds"/>
                    </mxGeometry>
                </mxCell>
                <mxCell id="fsfctVLM751hEk04BxLL-9" value="" style="shape=partialRectangle;html=1;whiteSpace=wrap;collapsible=0;dropTarget=0;pointerEvents=0;fillColor=none;top=0;left=0;bottom=0;right=0;points=[[0,0.5],[1,0.5]];portConstraint=eastwest;" parent="fsfctVLM751hEk04BxLL-0" vertex="1">
                    <mxGeometry y="110" width="340" height="40" as="geometry"/>
                </mxCell>
                <mxCell id="fsfctVLM751hEk04BxLL-10" value="" style="shape=partialRectangle;html=1;whiteSpace=wrap;connectable=0;fillColor=none;top=0;left=0;bottom=0;right=0;overflow=hidden;pointerEvents=1;" parent="fsfctVLM751hEk04BxLL-9" vertex="1">
                    <mxGeometry width="113" height="40" as="geometry">
                        <mxRectangle width="113" height="40" as="alternateBounds"/>
                    </mxGeometry>
                </mxCell>
                <mxCell id="fsfctVLM751hEk04BxLL-11" value="" style="shape=partialRectangle;html=1;whiteSpace=wrap;connectable=0;fillColor=none;top=0;left=0;bottom=0;right=0;overflow=hidden;pointerEvents=1;" parent="fsfctVLM751hEk04BxLL-9" vertex="1">
                    <mxGeometry x="113" width="114" height="40" as="geometry">
                        <mxRectangle width="114" height="40" as="alternateBounds"/>
                    </mxGeometry>
                </mxCell>
                <mxCell id="fsfctVLM751hEk04BxLL-12" value="" style="shape=partialRectangle;html=1;whiteSpace=wrap;connectable=0;fillColor=none;top=0;left=0;bottom=0;right=0;overflow=hidden;pointerEvents=1;" parent="fsfctVLM751hEk04BxLL-9" vertex="1">
                    <mxGeometry x="227" width="113" height="40" as="geometry">
                        <mxRectangle width="113" height="40" as="alternateBounds"/>
                    </mxGeometry>
                </mxCell>
            </root>
        </mxGraphModel>
    </diagram>
</mxfile>